<svg width="300" height="110" viewBox="0 0 300 110" fill="none" xmlns="http://www.w3.org/2000/svg">
<path d="M49.0909 67.2727H47.6636C47.4748 67.2687 47.2915 67.208 47.1375 67.0986C46.9835 66.9892 46.866 66.8361 46.8 66.6591V66.6477C46.7229 66.4759 46.6991 66.2849 46.7315 66.0994C46.7639 65.9139 46.8511 65.7423 46.9818 65.6068L47.9909 64.5977C48.0771 64.5131 48.1457 64.4121 48.1924 64.3007C48.2392 64.1893 48.2633 64.0697 48.2633 63.9489C48.2633 63.828 48.2392 63.7084 48.1924 63.597C48.1457 63.4856 48.0771 63.3846 47.9909 63.3L46.7159 62.025C46.6313 61.9388 46.5303 61.8703 46.4189 61.8235C46.3075 61.7767 46.1879 61.7526 46.067 61.7526C45.9462 61.7526 45.8266 61.7767 45.7152 61.8235C45.6038 61.8703 45.5028 61.9388 45.4182 62.025L44.4091 63.0341C44.2736 63.165 44.1019 63.2522 43.9163 63.2842C43.7306 63.3162 43.5397 63.2916 43.3682 63.2136H43.3545C43.1781 63.1471 43.0257 63.0292 42.9167 62.8754C42.8078 62.7215 42.7473 62.5385 42.7432 62.35V60.9091C42.7432 60.668 42.6474 60.4368 42.4769 60.2663C42.3064 60.0958 42.0752 60 41.8341 60H40C39.7589 60 39.5277 60.0958 39.3572 60.2663C39.1867 60.4368 39.0909 60.668 39.0909 60.9091V62.3364C39.0867 62.5249 39.0263 62.7078 38.9174 62.8617C38.8084 63.0156 38.6559 63.1334 38.4795 63.2H38.4659C38.2944 63.278 38.1034 63.3026 37.9178 63.2705C37.7322 63.2385 37.5604 63.1514 37.425 63.0205L36.4159 62.0114C36.3313 61.9251 36.2303 61.8566 36.1189 61.8099C36.0075 61.7631 35.8879 61.739 35.767 61.739C35.6462 61.739 35.5266 61.7631 35.4152 61.8099C35.3038 61.8566 35.2028 61.9251 35.1182 62.0114L33.8432 63.2864C33.7569 63.371 33.6884 63.472 33.6417 63.5834C33.5949 63.6948 33.5708 63.8144 33.5708 63.9352C33.5708 64.0561 33.5949 64.1757 33.6417 64.2871C33.6884 64.3985 33.7569 64.4995 33.8432 64.5841L34.8523 65.5932C34.983 65.7287 35.0702 65.9003 35.1026 66.0858C35.135 66.2713 35.1112 66.4623 35.0341 66.6341V66.6455C34.9681 66.8225 34.8506 66.9756 34.6966 67.085C34.5426 67.1944 34.3593 67.255 34.1705 67.2591H32.7273C32.4862 67.2591 32.2549 67.3549 32.0844 67.5254C31.914 67.6958 31.8182 67.9271 31.8182 68.1682V70C31.8182 70.2411 31.914 70.4723 32.0844 70.6428C32.2549 70.8133 32.4862 70.9091 32.7273 70.9091H34.1545C34.3431 70.9133 34.526 70.9737 34.6799 71.0826C34.8338 71.1916 34.9516 71.344 35.0182 71.5205V71.5341C35.0953 71.7059 35.1191 71.8969 35.0867 72.0824C35.0543 72.2679 34.9671 72.4395 34.8364 72.575L33.8273 73.5841C33.741 73.6687 33.6725 73.7697 33.6258 73.8811C33.579 73.9925 33.5549 74.1121 33.5549 74.233C33.5549 74.3538 33.579 74.4734 33.6258 74.5848C33.6725 74.6962 33.741 74.7972 33.8273 74.8818L35.1023 76.1568C35.1869 76.2431 35.2879 76.3116 35.3993 76.3583C35.5107 76.4051 35.6303 76.4292 35.7511 76.4292C35.872 76.4292 35.9916 76.4051 36.103 76.3583C36.2144 76.3116 36.3154 76.2431 36.4 76.1568L37.4091 75.1477C37.5446 75.017 37.7162 74.9298 37.9017 74.8974C38.0872 74.865 38.2782 74.8888 38.45 74.9659H38.4636C38.6404 75.032 38.7932 75.1496 38.9022 75.3036C39.0112 75.4577 39.0714 75.6409 39.075 75.8295V77.2727C39.075 77.5138 39.1708 77.7451 39.3413 77.9156C39.5118 78.086 39.743 78.1818 39.9841 78.1818H41.8182C42.0593 78.1818 42.2905 78.086 42.461 77.9156C42.6315 77.7451 42.7273 77.5138 42.7273 77.2727V75.8364C42.7308 75.6477 42.791 75.4645 42.9001 75.3105C43.0091 75.1565 43.1619 75.0388 43.3386 74.9727H43.3523C43.5241 74.8957 43.7151 74.8718 43.9006 74.9042C44.0861 74.9366 44.2577 75.0238 44.3932 75.1545L45.4023 76.1636C45.4869 76.2499 45.5879 76.3184 45.6993 76.3651C45.8107 76.4119 45.9303 76.436 46.0511 76.436C46.172 76.436 46.2916 76.4119 46.403 76.3651C46.5144 76.3184 46.6154 76.2499 46.7 76.1636L47.975 74.8886C48.0612 74.804 48.1297 74.703 48.1765 74.5916C48.2233 74.4802 48.2474 74.3606 48.2474 74.2398C48.2474 74.1189 48.2233 73.9993 48.1765 73.8879C48.1297 73.7765 48.0612 73.6755 47.975 73.5909L46.9659 72.5818C46.8352 72.4463 46.748 72.2747 46.7155 72.0892C46.6831 71.9037 46.707 71.7127 46.7841 71.5409V71.5273C46.8507 71.3509 46.9685 71.1984 47.1224 71.0895C47.2763 70.9805 47.4592 70.9201 47.6477 70.9159H49.0909C49.2103 70.9159 49.3285 70.8924 49.4388 70.8467C49.5491 70.801 49.6493 70.7341 49.7337 70.6496C49.8182 70.5652 49.8851 70.465 49.9308 70.3547C49.9765 70.2444 50 70.1262 50 70.0068V68.1818C50 67.9407 49.9042 67.7095 49.7337 67.539C49.5632 67.3685 49.332 67.2727 49.0909 67.2727ZM40.9091 71.8182C40.3697 71.8182 39.8424 71.6582 39.3939 71.3586C38.9454 71.0589 38.5958 70.6329 38.3894 70.1346C38.183 69.6362 38.129 69.0879 38.2342 68.5588C38.3395 68.0298 38.5992 67.5439 38.9806 67.1624C39.362 66.781 39.848 66.5213 40.377 66.416C40.9061 66.3108 41.4544 66.3648 41.9528 66.5712C42.4511 66.7777 42.8771 67.1272 43.1767 67.5757C43.4764 68.0242 43.6364 68.5515 43.6364 69.0909C43.6364 69.8142 43.349 70.5079 42.8376 71.0194C42.3261 71.5308 41.6324 71.8182 40.9091 71.8182ZM38.6364 82.7273C38.1055 82.7274 37.5914 82.9134 37.1833 83.253C36.7752 83.5926 36.4989 84.0643 36.4023 84.5864C35.3091 85.5568 29.7136 87.2727 20.4545 87.2727C16.6455 87.2727 6.875 86.5909 4.54545 84.6114V71.4545C9.70663 72.9868 15.0714 73.7226 20.4545 73.6364C22.0636 73.6364 23.6364 73.5864 25.1477 73.4886C25.7505 73.4495 26.313 73.1724 26.7115 72.7185C27.11 72.2646 27.3119 71.6709 27.2727 71.0682C27.2335 70.4654 26.9565 69.9029 26.5026 69.5044C26.0487 69.1059 25.455 68.904 24.8523 68.9432C23.4455 69.0432 21.9727 69.0909 20.4545 69.0909C15.2579 69.3422 10.0625 68.57 5.16364 66.8182C10.0625 65.0664 15.2579 64.2942 20.4545 64.5455C21.9727 64.5455 23.4455 64.5932 24.8523 64.6864C25.455 64.7255 26.0487 64.5237 26.5026 64.1252C26.9565 63.7266 27.2335 63.1641 27.2727 62.5614C27.3119 61.9586 27.11 61.365 26.7115 60.911C26.313 60.4571 25.7505 60.1801 25.1477 60.1409C23.6364 60.05 22.0636 60 20.4545 60C17.0455 60 0 60.3295 0 66.8182V103.182C0 109.67 17.0455 110 20.4545 110C23.8636 110 40.9091 109.67 40.9091 103.182V85C40.9091 84.3972 40.6696 83.8192 40.2434 83.3929C39.8172 82.9667 39.2391 82.7273 38.6364 82.7273ZM36.3636 102.8C35.1864 103.777 29.6114 105.455 20.4545 105.455C11.2977 105.455 5.72273 103.777 4.54545 102.8V89.6523C9.69888 91.2188 15.0699 91.95 20.4545 91.8182C25.8384 91.9364 31.2073 91.2055 36.3636 89.6523V102.8Z" fill="url(#paint0_linear_5_180)"/>
<path d="M130 16.6087C130.593 16.6087 131.173 16.4139 131.667 16.0489C132.16 15.6839 132.545 15.1651 132.772 14.5581C132.999 13.9511 133.058 13.2832 132.942 12.6389C132.827 11.9945 132.541 11.4027 132.121 10.9381C131.702 10.4736 131.167 10.1572 130.585 10.029C130.003 9.90086 129.4 9.96664 128.852 10.2181C128.304 10.4695 127.835 10.8952 127.506 11.4415C127.176 11.9877 127 12.63 127 13.2869C127 14.1679 127.316 15.0128 127.879 15.6358C128.441 16.2587 129.204 16.6087 130 16.6087ZM169 59.7912H150.46C150.012 58.3981 149.29 57.1328 148.345 56.0871C147.401 55.0415 146.258 54.2416 145 53.7456V46.5043H157C159.387 46.5043 161.676 45.4544 163.364 43.5855C165.052 41.7167 166 39.182 166 36.5391V29.8956C165.987 27.4373 165.153 25.0712 163.66 23.2521C165.153 21.433 165.987 19.0669 166 16.6087V9.9652C166 7.32226 165.052 4.78758 163.364 2.91874C161.676 1.0499 159.387 0 157 0H127C124.613 0 122.324 1.0499 120.636 2.91874C118.948 4.78758 118 7.32226 118 9.9652V16.6087C118.013 19.0669 118.847 21.433 120.34 23.2521C118.847 25.0712 118.013 27.4373 118 29.8956V36.5391C118 39.182 118.948 41.7167 120.636 43.5855C122.324 45.4544 124.613 46.5043 127 46.5043H139V53.7456C137.742 54.2416 136.599 55.0415 135.655 56.0871C134.71 57.1328 133.988 58.3981 133.54 59.7912H115C114.204 59.7912 113.441 60.1412 112.879 60.7641C112.316 61.3871 112 62.232 112 63.1129C112 63.9939 112.316 64.8388 112.879 65.4618C113.441 66.0847 114.204 66.4347 115 66.4347H133.54C134.171 68.3585 135.321 70.0206 136.834 71.1952C138.348 72.3699 140.152 73 142 73C143.848 73 145.652 72.3699 147.166 71.1952C148.679 70.0206 149.829 68.3585 150.46 66.4347H169C169.796 66.4347 170.559 66.0847 171.121 65.4618C171.684 64.8388 172 63.9939 172 63.1129C172 62.232 171.684 61.3871 171.121 60.7641C170.559 60.1412 169.796 59.7912 169 59.7912ZM124 9.9652C124 9.08422 124.316 8.23933 124.879 7.61638C125.441 6.99343 126.204 6.64347 127 6.64347H157C157.796 6.64347 158.559 6.99343 159.121 7.61638C159.684 8.23933 160 9.08422 160 9.9652V16.6087C160 17.4896 159.684 18.3345 159.121 18.9575C158.559 19.5804 157.796 19.9304 157 19.9304H127C126.204 19.9304 125.441 19.5804 124.879 18.9575C124.316 18.3345 124 17.4896 124 16.6087V9.9652ZM127 39.8608C126.204 39.8608 125.441 39.5108 124.879 38.8879C124.316 38.2649 124 37.42 124 36.5391V29.8956C124 29.0146 124.316 28.1697 124.879 27.5468C125.441 26.9238 126.204 26.5739 127 26.5739H157C157.796 26.5739 158.559 26.9238 159.121 27.5468C159.684 28.1697 160 29.0146 160 29.8956V36.5391C160 37.42 159.684 38.2649 159.121 38.8879C158.559 39.5108 157.796 39.8608 157 39.8608H127ZM142 66.4347C141.407 66.4347 140.827 66.2399 140.333 65.8749C139.84 65.5099 139.455 64.9911 139.228 64.3841C139.001 63.7771 138.942 63.1092 139.058 62.4649C139.173 61.8205 139.459 61.2287 139.879 60.7641C140.298 60.2996 140.833 59.9832 141.415 59.855C141.997 59.7269 142.6 59.7926 143.148 60.0441C143.696 60.2955 144.165 60.7212 144.494 61.2675C144.824 61.8137 145 62.456 145 63.1129C145 63.9939 144.684 64.8388 144.121 65.4618C143.559 66.0847 142.796 66.4347 142 66.4347ZM130 29.8956C129.407 29.8956 128.827 30.0904 128.333 30.4554C127.84 30.8204 127.455 31.3392 127.228 31.9462C127.001 32.5531 126.942 33.221 127.058 33.8654C127.173 34.5097 127.459 35.1016 127.879 35.5662C128.298 36.0307 128.833 36.3471 129.415 36.4752C129.997 36.6034 130.6 36.5376 131.148 36.2862C131.696 36.0348 132.165 35.609 132.494 35.0628C132.824 34.5165 133 33.8743 133 33.2173C133 32.3364 132.684 31.4915 132.121 30.8685C131.559 30.2456 130.796 29.8956 130 29.8956Z" fill="url(#paint1_linear_5_180)"/>
<path d="M290 85C292.761 85 295 82.7615 295 80C295 77.2385 292.761 75 290 75C287.239 75 285 77.2385 285 80C285 82.7615 287.239 85 290 85Z" stroke="url(#paint2_linear_5_180)" stroke-width="6" stroke-linecap="round" stroke-linejoin="round"/>
<path d="M290 65C292.761 65 295 62.7614 295 60C295 57.2386 292.761 55 290 55C287.239 55 285 57.2386 285 60C285 62.7614 287.239 65 290 65Z" stroke="url(#paint3_linear_5_180)" stroke-width="6" stroke-linecap="round" stroke-linejoin="round"/>
<path d="M290 105C292.761 105 295 102.761 295 100C295 97.2385 292.761 95 290 95C287.239 95 285 97.2385 285 100C285 102.761 287.239 105 290 105Z" stroke="url(#paint4_linear_5_180)" stroke-width="6" stroke-linecap="round" stroke-linejoin="round"/>
<path d="M250 85C252.761 85 255 82.7615 255 80C255 77.2385 252.761 75 250 75C247.239 75 245 77.2385 245 80C245 82.7615 247.239 85 250 85Z" stroke="url(#paint5_linear_5_180)" stroke-width="6" stroke-linecap="round" stroke-linejoin="round"/>
<path d="M255 80H285" stroke="url(#paint6_linear_5_180)" stroke-width="6" stroke-linecap="round" stroke-linejoin="round"/>
<path d="M285 60H275C270 60 267.5 62.5 267.5 67.5V92.5C267.5 97.5 270 100 275 100H285" stroke="url(#paint7_linear_5_180)" stroke-width="6" stroke-linecap="round" stroke-linejoin="round"/>
<path d="M105 64H74V79H51.5" stroke="url(#paint8_linear_5_180)" stroke-width="5" stroke-linecap="round"/>
<path d="M180 64H211V80.5H236.5" stroke="url(#paint9_linear_5_180)" stroke-width="5" stroke-linecap="round"/>
<defs>
<linearGradient id="paint0_linear_5_180" x1="25" y1="60" x2="25" y2="110" gradientUnits="userSpaceOnUse">
<stop stop-color="#2DD0BB"/>
<stop offset="1" stop-color="#42DB91"/>
</linearGradient>
<linearGradient id="paint1_linear_5_180" x1="142" y1="0" x2="142" y2="73" gradientUnits="userSpaceOnUse">
<stop stop-color="#2DD0BB"/>
<stop offset="1" stop-color="#42DB91"/>
</linearGradient>
<linearGradient id="paint2_linear_5_180" x1="290" y1="75" x2="290" y2="85" gradientUnits="userSpaceOnUse">
<stop stop-color="#2DD0BB"/>
<stop offset="1" stop-color="#42DB91"/>
</linearGradient>
<linearGradient id="paint3_linear_5_180" x1="290" y1="55" x2="290" y2="65" gradientUnits="userSpaceOnUse">
<stop stop-color="#2DD0BB"/>
<stop offset="1" stop-color="#42DB91"/>
</linearGradient>
<linearGradient id="paint4_linear_5_180" x1="290" y1="95" x2="290" y2="105" gradientUnits="userSpaceOnUse">
<stop stop-color="#2DD0BB"/>
<stop offset="1" stop-color="#42DB91"/>
</linearGradient>
<linearGradient id="paint5_linear_5_180" x1="250" y1="75" x2="250" y2="85" gradientUnits="userSpaceOnUse">
<stop stop-color="#2DD0BB"/>
<stop offset="1" stop-color="#42DB91"/>
</linearGradient>
<linearGradient id="paint6_linear_5_180" x1="270" y1="80" x2="270" y2="81" gradientUnits="userSpaceOnUse">
<stop stop-color="#2DD0BB"/>
<stop offset="1" stop-color="#42DB91"/>
</linearGradient>
<linearGradient id="paint7_linear_5_180" x1="276.25" y1="60" x2="276.25" y2="100" gradientUnits="userSpaceOnUse">
<stop stop-color="#2DD0BB"/>
<stop offset="1" stop-color="#42DB91"/>
</linearGradient>
<linearGradient id="paint8_linear_5_180" x1="48" y1="79.8993" x2="104.701" y2="79.8993" gradientUnits="userSpaceOnUse">
<stop stop-color="#2DD0BB"/>
<stop offset="1" stop-color="#42DB91"/>
</linearGradient>
<linearGradient id="paint9_linear_5_180" x1="237" y1="79.8993" x2="180.299" y2="79.8993" gradientUnits="userSpaceOnUse">
<stop stop-color="#2DD0BB"/>
<stop offset="1" stop-color="#42DB91"/>
</linearGradient>
</defs>
</svg>
