<svg width="358" height="81" viewBox="0 0 358 81" fill="none" xmlns="http://www.w3.org/2000/svg">
<path fill-rule="evenodd" clip-rule="evenodd" d="M357.11 7.51576C347.69 21.5613 319.317 49.9705 319.317 49.9705L319.306 49.9594C319.239 50.0326 319.179 50.1089 319.107 50.1805C318.259 51.024 317.23 51.6628 316.1 52.0488C314.969 52.4347 313.765 52.5576 312.58 52.4082C312.969 53.9971 312.951 55.6589 312.527 57.2388C312.102 58.8186 311.286 60.265 310.154 61.443C310.154 61.443 298.223 76.2412 285 66.9167C285 66.9167 292.13 64.9134 292.751 59.1438C292.587 57.0744 292.887 54.9946 293.628 53.0564C294.369 51.1182 295.533 49.3707 297.034 47.9417C298.131 46.803 299.504 45.9696 301.018 45.5233C302.533 45.077 304.137 45.0331 305.673 45.3958C305.542 44.2228 305.674 43.0351 306.062 41.9204C306.449 40.8058 307.082 39.7928 307.912 38.9562C307.982 38.8846 308.06 38.8242 308.133 38.7557L308.122 38.7446C308.122 38.7446 336.476 10.3306 350.501 0.896378C351.412 0.237514 352.527 -0.0748394 353.647 0.0151851C354.766 0.10521 355.818 0.59174 356.612 1.38776C357.407 2.18377 357.893 3.23735 357.984 4.36005C358.076 5.48275 357.765 6.60135 357.11 7.51576ZM307.945 50.1073C307.381 49.5256 306.707 49.0622 305.963 48.744C305.218 48.4257 304.418 48.259 303.609 48.2536C302.796 48.2544 301.991 48.4198 301.243 48.74C300.495 49.0601 299.819 49.5285 299.256 50.1169C298.074 51.2883 297.158 52.7017 296.57 54.2607C295.983 55.8197 295.738 57.4875 295.852 59.1501C295.476 62.0967 294.032 64.8015 291.795 66.7497C292.468 66.8728 293.15 66.9346 293.834 66.9343C301.371 66.9343 307.72 59.5193 307.779 59.4556C307.78 59.4493 312.125 54.3001 307.945 50.1073ZM308.799 44.5732C308.791 45.1948 308.907 45.8117 309.139 46.388C309.372 46.9642 309.717 47.4881 310.154 47.929C311.059 48.8316 312.282 49.3408 313.559 49.3467C314.17 49.3449 314.775 49.2209 315.337 48.9821C315.9 48.7434 316.41 48.3945 316.837 47.956L319.302 45.4579L319.737 45.0123L313.073 38.3293C312.927 38.4709 312.756 38.6475 312.618 38.7732L310.152 41.2189C309.715 41.6594 309.371 42.183 309.138 42.759C308.906 43.335 308.79 43.9518 308.799 44.5732ZM354.376 3.64438C354.232 3.49944 354.06 3.3846 353.871 3.30649C353.683 3.22838 353.48 3.18855 353.276 3.18929C352.911 3.19364 352.557 3.31769 352.269 3.54254C342.403 10.1778 323.71 27.9945 315.301 36.1621L321.9 42.7799C330.055 34.3465 347.863 15.5975 354.533 5.65406C354.75 5.35533 354.853 4.98862 354.825 4.62011C354.796 4.25159 354.637 3.90553 354.376 3.64438Z" fill="#AC8FF4"/>
<path d="M1 76C11.4796 55.4366 27.5 43.7368 41 48C54.5 52.2632 72 72 88.5 72C105 72 113 44.5 124.5 41C136 37.5 145 59 156 63.5C167 68 191.5 41 204 41C216.5 41 222 48.5 223.5 66C225 83.5 242.5 83.5 247.5 72C252.5 60.5 281 72 281 72" stroke="url(#paint0_linear_4_148)" stroke-width="2" stroke-linecap="round"/>
<defs>
<linearGradient id="paint0_linear_4_148" x1="1" y1="58.5" x2="285" y2="58.5" gradientUnits="userSpaceOnUse">
<stop stop-color="#F372B6"/>
<stop offset="1" stop-color="#AC8FF4"/>
</linearGradient>
</defs>
</svg>
