<svg width="895" height="450" viewBox="0 0 895 450" fill="none" xmlns="http://www.w3.org/2000/svg">
    <path
        d="M88.2 120.9C111 120.9 130.7 125.2 147.3 133.8C164.1 142.2 176.9 154.3 185.7 170.1C194.7 185.9 199.2 204.5 199.2 225.9C199.2 247.3 194.7 265.9 185.7 281.7C176.9 297.3 164.1 309.3 147.3 317.7C130.7 325.9 111 330 88.2 330H23.1V120.9H88.2ZM88.2 307.5C115.2 307.5 135.8 300.4 150 286.2C164.2 271.8 171.3 251.7 171.3 225.9C171.3 199.9 164.1 179.6 149.7 165C135.5 150.4 115 143.1 88.2 143.1H50.4V307.5H88.2ZM358.509 165.6V330H331.209V305.7C326.009 314.1 318.709 320.7 309.309 325.5C300.109 330.1 289.909 332.4 278.709 332.4C265.909 332.4 254.409 329.8 244.209 324.6C234.009 319.2 225.909 311.2 219.909 300.6C214.109 290 211.209 277.1 211.209 261.9V165.6H238.209V258.3C238.209 274.5 242.309 287 250.509 295.8C258.709 304.4 269.909 308.7 284.109 308.7C298.709 308.7 310.209 304.2 318.609 295.2C327.009 286.2 331.209 273.1 331.209 255.9V165.6H358.509ZM371.904 247.2C371.904 230.4 375.304 215.7 382.104 203.1C388.904 190.3 398.204 180.4 410.004 173.4C422.004 166.4 435.404 162.9 450.204 162.9C464.404 162.9 476.804 166.1 487.404 172.5C498.204 178.7 506.104 186.4 511.104 195.6V165.6H538.704V408H511.104V299.7C505.904 308.9 497.904 316.7 487.104 323.1C476.304 329.5 463.704 332.7 449.304 332.7C434.904 332.7 421.804 329.1 410.004 321.9C398.204 314.7 388.904 304.6 382.104 291.6C375.304 278.6 371.904 263.8 371.904 247.2ZM511.104 247.5C511.104 235.1 508.604 224.3 503.604 215.1C498.604 205.9 491.804 198.9 483.204 194.1C474.804 189.1 465.504 186.6 455.304 186.6C445.104 186.6 435.804 189 427.404 193.8C419.004 198.6 412.304 205.6 407.304 214.8C402.304 224 399.804 234.8 399.804 247.2C399.804 259.8 402.304 270.8 407.304 280.2C412.304 289.4 419.004 296.5 427.404 301.5C435.804 306.3 445.104 308.7 455.304 308.7C465.504 308.7 474.804 306.3 483.204 301.5C491.804 296.5 498.604 289.4 503.604 280.2C508.604 270.8 511.104 259.9 511.104 247.5ZM708.138 165.6V330H680.838V305.7C675.638 314.1 668.338 320.7 658.938 325.5C649.738 330.1 639.538 332.4 628.338 332.4C615.538 332.4 604.038 329.8 593.838 324.6C583.638 319.2 575.538 311.2 569.538 300.6C563.738 290 560.838 277.1 560.838 261.9V165.6H587.838V258.3C587.838 274.5 591.938 287 600.138 295.8C608.338 304.4 619.538 308.7 633.738 308.7C648.338 308.7 659.838 304.2 668.238 295.2C676.638 286.2 680.838 273.1 680.838 255.9V165.6H708.138ZM881.733 241.5C881.733 246.7 881.433 252.2 880.833 258H749.433C750.433 274.2 755.933 286.9 765.933 296.1C776.133 305.1 788.433 309.6 802.833 309.6C814.633 309.6 824.433 306.9 832.233 301.5C840.233 295.9 845.833 288.5 849.033 279.3H878.433C874.033 295.1 865.233 308 852.033 318C838.833 327.8 822.433 332.7 802.833 332.7C787.233 332.7 773.233 329.2 760.833 322.2C748.633 315.2 739.033 305.3 732.033 292.5C725.033 279.5 721.533 264.5 721.533 247.5C721.533 230.5 724.933 215.6 731.733 202.8C738.533 190 748.033 180.2 760.233 173.4C772.633 166.4 786.833 162.9 802.833 162.9C818.433 162.9 832.233 166.3 844.233 173.1C856.233 179.9 865.433 189.3 871.833 201.3C878.433 213.1 881.733 226.5 881.733 241.5ZM853.533 235.8C853.533 225.4 851.233 216.5 846.633 209.1C842.033 201.5 835.733 195.8 827.733 192C819.933 188 811.233 186 801.633 186C787.833 186 776.033 190.4 766.233 199.2C756.633 208 751.133 220.2 749.733 235.8H853.533Z"
        fill="#020202" />
    <path
        d="M210.4 158.05C202.7 158.05 195.8 156.8 189.7 154.3C183.6 151.8 178.7 148.1 175 143.2C171.4 138.3 169.5 132.4 169.3 125.5H196.6C197 129.4 198.35 132.4 200.65 134.5C202.95 136.5 205.95 137.5 209.65 137.5C213.45 137.5 216.45 136.65 218.65 134.95C220.85 133.15 221.95 130.7 221.95 127.6C221.95 125 221.05 122.85 219.25 121.15C217.55 119.45 215.4 118.05 212.8 116.95C210.3 115.85 206.7 114.6 202 113.2C195.2 111.1 189.65 109 185.35 106.9C181.05 104.8 177.35 101.7 174.25 97.5999C171.15 93.5 169.6 88.15 169.6 81.5499C169.6 71.75 173.15 64.1 180.25 58.6C187.35 53 196.6 50.2 208 50.2C219.6 50.2 228.95 53 236.05 58.6C243.15 64.1 246.95 71.7999 247.45 81.6999H219.7C219.5 78.2999 218.25 75.65 215.95 73.75C213.65 71.7499 210.7 70.7499 207.1 70.7499C204 70.7499 201.5 71.5999 199.6 73.2999C197.7 74.8999 196.75 77.2499 196.75 80.3499C196.75 83.7499 198.35 86.4 201.55 88.2999C204.75 90.2 209.75 92.25 216.55 94.4499C223.35 96.7499 228.85 98.95 233.05 101.05C237.35 103.15 241.05 106.2 244.15 110.2C247.25 114.2 248.8 119.35 248.8 125.65C248.8 131.65 247.25 137.1 244.15 142C241.15 146.9 236.75 150.8 230.95 153.7C225.15 156.6 218.3 158.05 210.4 158.05Z"
        fill="#1FCDAC" />
    <path
        d="M299.685 158.2C291.485 158.2 284.085 156.45 277.485 152.95C270.985 149.45 265.835 144.45 262.035 137.95C258.335 131.45 256.485 123.85 256.485 115.15C256.485 106.55 258.385 99 262.185 92.5C265.985 85.8999 271.185 80.85 277.785 77.35C284.385 73.8499 291.785 72.0999 299.985 72.0999C308.185 72.0999 315.585 73.8499 322.185 77.35C328.785 80.85 333.985 85.8999 337.785 92.5C341.585 99 343.485 106.55 343.485 115.15C343.485 123.75 341.535 131.35 337.635 137.95C333.835 144.45 328.585 149.45 321.885 152.95C315.285 156.45 307.885 158.2 299.685 158.2ZM299.685 136C304.585 136 308.735 134.2 312.135 130.6C315.635 127 317.385 121.85 317.385 115.15C317.385 108.45 315.685 103.3 312.285 99.6999C308.985 96.0999 304.885 94.2999 299.985 94.2999C294.985 94.2999 290.835 96.0999 287.535 99.6999C284.235 103.2 282.585 108.35 282.585 115.15C282.585 121.85 284.185 127 287.385 130.6C290.685 134.2 294.785 136 299.685 136Z"
        fill="#1FCDAC" />
    <path
        d="M439.593 73.2999L378.693 192L364 171L378.693 154.15L344.643 73.2999H373.293L392.643 125.65L411.843 73.2999H439.593Z"
        fill="#1FCDAC" />
    <circle cx="107" cy="265" r="20" fill="#1FCDAC" />
    <circle cx="455" cy="265" r="20" fill="#1FCDAC" />
</svg>