<svg width="358" height="50" viewBox="0 0 358 50" fill="none" xmlns="http://www.w3.org/2000/svg">
    <mask id="path-1-outside-1_9_268" maskUnits="userSpaceOnUse" x="0" y="0" width="358" height="50" fill="black">
        <rect fill="white" width="358" height="50" />
        <path
            d="M356 25C356 37.7025 345.708 48 333.013 48C320.317 48 310.025 37.7025 310.025 25C310.025 12.2975 320.317 2 333.013 2C345.708 2 356 12.2975 356 25Z" />
    </mask>
    <path
        d="M304.692 25C304.692 27.9455 307.08 30.3333 310.025 30.3333C312.971 30.3333 315.359 27.9455 315.359 25C315.359 22.0545 312.971 19.6667 310.025 19.6667C307.08 19.6667 304.692 22.0545 304.692 25ZM0.666667 25C0.666667 27.9455 3.05448 30.3333 6 30.3333C8.94552 30.3333 11.3333 27.9455 11.3333 25C11.3333 22.0545 8.94552 19.6667 6 19.6667C3.05448 19.6667 0.666667 22.0545 0.666667 25ZM310.025 24H6V26H310.025V24ZM354 25C354 36.599 344.603 46 333.013 46V50C346.814 50 358 38.8061 358 25H354ZM333.013 46C321.423 46 312.025 36.599 312.025 25H308.025C308.025 38.8061 319.211 50 333.013 50V46ZM312.025 25C312.025 13.401 321.423 4 333.013 4V0C319.211 0 308.025 11.1939 308.025 25H312.025ZM333.013 4C344.603 4 354 13.401 354 25H358C358 11.1939 346.814 0 333.013 0V4Z"
        fill="url(#paint0_linear_9_268)" mask="url(#path-1-outside-1_9_268)" />
    <path
        d="M318.123 29V20.2727H321.566C322.228 20.2727 322.792 20.3991 323.258 20.652C323.724 20.902 324.079 21.25 324.323 21.696C324.57 22.1392 324.694 22.6506 324.694 23.2301C324.694 23.8097 324.569 24.321 324.319 24.7642C324.069 25.2074 323.707 25.5526 323.232 25.7997C322.761 26.0469 322.19 26.1705 321.519 26.1705H319.325V24.6918H321.221C321.576 24.6918 321.869 24.6307 322.099 24.5085C322.332 24.3835 322.505 24.2116 322.619 23.9929C322.735 23.7713 322.793 23.517 322.793 23.2301C322.793 22.9403 322.735 22.6875 322.619 22.4716C322.505 22.2528 322.332 22.0838 322.099 21.9645C321.866 21.8423 321.57 21.7812 321.212 21.7812H319.968V29H318.123ZM332.204 22.7827C332.17 22.4389 332.024 22.1719 331.765 21.9815C331.507 21.7912 331.156 21.696 330.713 21.696C330.412 21.696 330.157 21.7386 329.95 21.8239C329.743 21.9062 329.583 22.0213 329.473 22.169C329.365 22.3168 329.311 22.4844 329.311 22.6719C329.305 22.8281 329.338 22.9645 329.409 23.081C329.483 23.1974 329.583 23.2983 329.711 23.3835C329.839 23.4659 329.987 23.5384 330.155 23.6009C330.322 23.6605 330.501 23.7116 330.691 23.7543L331.476 23.9418C331.856 24.027 332.206 24.1406 332.524 24.2827C332.842 24.4247 333.118 24.5994 333.351 24.8068C333.583 25.0142 333.764 25.2585 333.892 25.5398C334.022 25.821 334.089 26.1435 334.092 26.5071C334.089 27.0412 333.953 27.5043 333.683 27.8963C333.416 28.2855 333.03 28.5881 332.524 28.804C332.021 29.017 331.414 29.1236 330.704 29.1236C330 29.1236 329.386 29.0156 328.863 28.7997C328.343 28.5838 327.937 28.2642 327.645 27.8409C327.355 27.4148 327.203 26.8878 327.189 26.2599H328.974C328.994 26.5526 329.078 26.7969 329.226 26.9929C329.376 27.1861 329.576 27.3324 329.826 27.4318C330.079 27.5284 330.365 27.5767 330.683 27.5767C330.995 27.5767 331.267 27.5312 331.497 27.4403C331.73 27.3494 331.91 27.223 332.038 27.0611C332.166 26.8991 332.23 26.7131 332.23 26.5028C332.23 26.3068 332.172 26.142 332.055 26.0085C331.941 25.875 331.774 25.7614 331.552 25.6676C331.333 25.5739 331.065 25.4886 330.747 25.4119L329.797 25.1733C329.061 24.9943 328.48 24.7145 328.054 24.3338C327.628 23.9531 327.416 23.4403 327.419 22.7955C327.416 22.267 327.556 21.8054 327.841 21.4105C328.128 21.0156 328.521 20.7074 329.021 20.4858C329.521 20.2642 330.089 20.1534 330.726 20.1534C331.373 20.1534 331.939 20.2642 332.422 20.4858C332.907 20.7074 333.285 21.0156 333.555 21.4105C333.825 21.8054 333.964 22.2628 333.973 22.7827H332.204ZM340.004 29H336.91V20.2727H340.03C340.908 20.2727 341.663 20.4474 342.297 20.7969C342.93 21.1435 343.418 21.642 343.758 22.2926C344.102 22.9432 344.274 23.7216 344.274 24.6278C344.274 25.5369 344.102 26.3182 343.758 26.9716C343.418 27.625 342.928 28.1264 342.288 28.4759C341.652 28.8253 340.891 29 340.004 29ZM338.756 27.419H339.928C340.473 27.419 340.932 27.3224 341.304 27.1293C341.679 26.9332 341.96 26.6307 342.148 26.2216C342.338 25.8097 342.433 25.2784 342.433 24.6278C342.433 23.983 342.338 23.456 342.148 23.0469C341.96 22.6378 341.68 22.3366 341.308 22.1435C340.936 21.9503 340.477 21.8537 339.932 21.8537H338.756V27.419ZM348.573 20.2727V29H347.517V20.2727H348.573Z"
        fill="#FF6D03" />
    <defs>
        <linearGradient id="paint0_linear_9_268" x1="129" y1="25" x2="356" y2="25" gradientUnits="userSpaceOnUse">
            <stop stop-color="#FF6D03" />
            <stop offset="1" stop-color="#ff4a03" />
        </linearGradient>
    </defs>
</svg>