<svg width="510" height="237" viewBox="0 0 510 237" fill="none" xmlns="http://www.w3.org/2000/svg">
<g filter="url(#filter0_d_1_4)">
<rect x="4" width="502" height="229" fill="#3B84B9"/>
<path d="M69.6 191L57.92 169.8H54.64V191H40.96V134.84H63.92C68.3467 134.84 72.1067 135.613 75.2 137.16C78.3467 138.707 80.6933 140.84 82.24 143.56C83.7867 146.227 84.56 149.213 84.56 152.52C84.56 156.253 83.4933 159.587 81.36 162.52C79.28 165.453 76.1867 167.533 72.08 168.76L85.04 191H69.6ZM54.64 160.12H63.12C65.6267 160.12 67.4933 159.507 68.72 158.28C70 157.053 70.64 155.32 70.64 153.08C70.64 150.947 70 149.267 68.72 148.04C67.4933 146.813 65.6267 146.2 63.12 146.2H54.64V160.12ZM135.227 167.96C135.227 169.24 135.148 170.573 134.988 171.96H104.028C104.241 174.733 105.121 176.867 106.668 178.36C108.268 179.8 110.214 180.52 112.508 180.52C115.921 180.52 118.294 179.08 119.628 176.2H134.188C133.441 179.133 132.081 181.773 130.108 184.12C128.188 186.467 125.761 188.307 122.828 189.64C119.894 190.973 116.614 191.64 112.988 191.64C108.614 191.64 104.721 190.707 101.308 188.84C97.8942 186.973 95.2275 184.307 93.3075 180.84C91.3875 177.373 90.4275 173.32 90.4275 168.68C90.4275 164.04 91.3608 159.987 93.2275 156.52C95.1475 153.053 97.8142 150.387 101.228 148.52C104.641 146.653 108.561 145.72 112.988 145.72C117.308 145.72 121.148 146.627 124.508 148.44C127.868 150.253 130.481 152.84 132.348 156.2C134.268 159.56 135.227 163.48 135.227 167.96ZM121.228 164.36C121.228 162.013 120.428 160.147 118.828 158.76C117.228 157.373 115.228 156.68 112.828 156.68C110.534 156.68 108.588 157.347 106.988 158.68C105.441 160.013 104.481 161.907 104.108 164.36H121.228ZM139.724 168.6C139.724 164.013 140.578 159.987 142.284 156.52C144.044 153.053 146.418 150.387 149.404 148.52C152.391 146.653 155.724 145.72 159.404 145.72C162.551 145.72 165.298 146.36 167.644 147.64C170.044 148.92 171.884 150.6 173.164 152.68V146.36H186.844V191H173.164V184.68C171.831 186.76 169.964 188.44 167.564 189.72C165.218 191 162.471 191.64 159.324 191.64C155.698 191.64 152.391 190.707 149.404 188.84C146.418 186.92 144.044 184.227 142.284 180.76C140.578 177.24 139.724 173.187 139.724 168.6ZM173.164 168.68C173.164 165.267 172.204 162.573 170.284 160.6C168.418 158.627 166.124 157.64 163.404 157.64C160.684 157.64 158.364 158.627 156.444 160.6C154.578 162.52 153.644 165.187 153.644 168.6C153.644 172.013 154.578 174.733 156.444 176.76C158.364 178.733 160.684 179.72 163.404 179.72C166.124 179.72 168.418 178.733 170.284 176.76C172.204 174.787 173.164 172.093 173.164 168.68ZM194.021 168.68C194.021 164.04 194.955 159.987 196.821 156.52C198.741 153.053 201.381 150.387 204.741 148.52C208.155 146.653 212.048 145.72 216.421 145.72C222.021 145.72 226.688 147.187 230.421 150.12C234.208 153.053 236.688 157.187 237.861 162.52H223.301C222.075 159.107 219.701 157.4 216.181 157.4C213.675 157.4 211.675 158.387 210.181 160.36C208.688 162.28 207.941 165.053 207.941 168.68C207.941 172.307 208.688 175.107 210.181 177.08C211.675 179 213.675 179.96 216.181 179.96C219.701 179.96 222.075 178.253 223.301 174.84H237.861C236.688 180.067 234.208 184.173 230.421 187.16C226.635 190.147 221.968 191.64 216.421 191.64C212.048 191.64 208.155 190.707 204.741 188.84C201.381 186.973 198.741 184.307 196.821 180.84C194.955 177.373 194.021 173.32 194.021 168.68ZM270.059 179.4V191H263.099C258.139 191 254.272 189.8 251.499 187.4C248.725 184.947 247.339 180.973 247.339 175.48V157.72H241.899V146.36H247.339V135.48H261.019V146.36H269.979V157.72H261.019V175.64C261.019 176.973 261.339 177.933 261.979 178.52C262.619 179.107 263.685 179.4 265.179 179.4H270.059ZM284.079 191.64C281.679 191.64 279.705 190.947 278.159 189.56C276.665 188.12 275.919 186.36 275.919 184.28C275.919 182.147 276.665 180.36 278.159 178.92C279.705 177.48 281.679 176.76 284.079 176.76C286.425 176.76 288.345 177.48 289.839 178.92C291.385 180.36 292.159 182.147 292.159 184.28C292.159 186.36 291.385 188.12 289.839 189.56C288.345 190.947 286.425 191.64 284.079 191.64ZM307.057 141.72C304.657 141.72 302.684 141.027 301.137 139.64C299.644 138.2 298.897 136.44 298.897 134.36C298.897 132.227 299.644 130.467 301.137 129.08C302.684 127.64 304.657 126.92 307.057 126.92C309.404 126.92 311.324 127.64 312.817 129.08C314.364 130.467 315.137 132.227 315.137 134.36C315.137 136.44 314.364 138.2 312.817 139.64C311.324 141.027 309.404 141.72 307.057 141.72ZM313.937 196.76C313.937 202.253 312.55 206.2 309.777 208.6C307.004 211.053 303.137 212.28 298.177 212.28H292.817V200.68H296.097C297.59 200.68 298.657 200.387 299.297 199.8C299.937 199.213 300.257 198.253 300.257 196.92V146.36H313.937V196.76ZM341.933 191.64C338.039 191.64 334.573 190.973 331.533 189.64C328.493 188.307 326.093 186.493 324.333 184.2C322.573 181.853 321.586 179.24 321.373 176.36H334.893C335.053 177.907 335.773 179.16 337.053 180.12C338.333 181.08 339.906 181.56 341.773 181.56C343.479 181.56 344.786 181.24 345.693 180.6C346.653 179.907 347.133 179.027 347.133 177.96C347.133 176.68 346.466 175.747 345.133 175.16C343.799 174.52 341.639 173.827 338.653 173.08C335.453 172.333 332.786 171.56 330.653 170.76C328.519 169.907 326.679 168.6 325.133 166.84C323.586 165.027 322.813 162.6 322.813 159.56C322.813 157 323.506 154.68 324.893 152.6C326.333 150.467 328.413 148.787 331.133 147.56C333.906 146.333 337.186 145.72 340.973 145.72C346.573 145.72 350.973 147.107 354.173 149.88C357.426 152.653 359.293 156.333 359.773 160.92H347.133C346.919 159.373 346.226 158.147 345.053 157.24C343.933 156.333 342.439 155.88 340.573 155.88C338.973 155.88 337.746 156.2 336.893 156.84C336.039 157.427 335.613 158.253 335.613 159.32C335.613 160.6 336.279 161.56 337.613 162.2C338.999 162.84 341.133 163.48 344.013 164.12C347.319 164.973 350.013 165.827 352.093 166.68C354.173 167.48 355.986 168.813 357.533 170.68C359.133 172.493 359.959 174.947 360.013 178.04C360.013 180.653 359.266 183 357.773 185.08C356.333 187.107 354.226 188.707 351.453 189.88C348.733 191.053 345.559 191.64 341.933 191.64Z" fill="white"/>
<path d="M416.5 94.7229C422.456 94.7229 427.284 89.8946 427.284 83.9385C427.284 77.9825 422.456 73.1542 416.5 73.1542C410.544 73.1542 405.716 77.9825 405.716 83.9385C405.716 89.8946 410.544 94.7229 416.5 94.7229Z" fill="white"/>
<path d="M386.304 105.38L383.917 104.77C366.191 100.293 356.023 92.6808 356.023 83.9144C356.023 75.1419 366.197 67.5354 383.917 63.0585L386.304 62.4544L386.974 64.8167C388.766 71.0015 391.061 77.0291 393.838 82.839L394.351 83.9144L393.838 84.9898C391.059 90.8079 388.757 96.8375 386.974 103.024L386.304 105.38ZM382.818 68.5565C369.351 72.3506 361.08 78.1385 361.08 83.9144C361.08 89.6781 369.345 95.4721 382.818 99.2602C384.467 94.016 386.461 88.8867 388.769 83.9144C386.444 78.9338 384.456 73.803 382.818 68.5565ZM446.69 105.38L446.026 103.012C444.229 96.826 441.932 90.7966 439.156 84.9838L438.643 83.9144L439.156 82.8329C441.935 77.0269 444.225 70.9913 446.026 64.8046L446.69 62.4483L449.077 63.0525C466.809 67.5294 476.971 75.1358 476.971 83.9144C476.971 92.6869 466.803 100.293 449.077 104.77L446.69 105.38ZM444.213 83.9144C446.63 89.1465 448.642 94.294 450.176 99.2602C463.649 95.4721 471.92 89.6781 471.92 83.9144C471.92 78.1385 463.655 72.3567 450.176 68.5565C448.529 73.8014 446.537 78.9318 444.213 83.9144Z" fill="white"/>
<path d="M382.781 68.5323L382.117 66.176C377.126 48.6069 378.637 36.0221 386.268 31.6358C393.729 27.316 405.734 32.4212 418.306 45.3202L420.022 47.0844L418.306 48.8425C413.841 53.4866 409.759 58.4854 406.102 63.7896L405.42 64.7683L404.235 64.865C397.805 65.3701 391.426 66.3985 385.162 67.9402L382.781 68.5323ZM392.339 35.1279C390.986 35.1279 389.79 35.424 388.781 36.004C383.778 38.8858 382.896 48.921 386.34 62.4665C391.723 61.2762 397.155 60.4244 402.628 59.9471C405.797 55.4524 409.254 51.1679 412.978 47.1206C405.105 39.4658 397.674 35.1279 392.339 35.1279ZM440.655 137.74C433.477 137.74 424.258 132.326 414.688 122.502L412.978 120.744L414.688 118.992C419.154 114.341 423.237 109.336 426.898 104.027L427.574 103.06L428.746 102.946C435.18 102.449 441.561 101.425 447.826 99.8825L450.213 99.2783L450.883 101.641C455.849 119.198 454.345 131.801 446.726 136.187C444.877 137.235 442.781 137.771 440.655 137.74ZM420.022 120.702C427.889 128.357 435.326 132.701 440.655 132.701C442.014 132.701 443.21 132.399 444.213 131.825C449.222 128.937 450.11 118.884 446.654 105.338C441.277 106.534 435.839 107.392 430.354 107.87C427.198 112.371 423.747 116.658 420.022 120.702Z" fill="white"/>
<path d="M450.213 68.5323L447.826 67.9342C441.561 66.3877 435.18 65.3592 428.746 64.859L427.574 64.7562L426.898 63.7775C423.242 58.4704 419.158 53.4714 414.688 48.8304L412.978 47.0723L414.688 45.3202C427.254 32.4273 439.253 27.3221 446.726 31.6358C454.351 36.0281 455.868 48.6129 450.883 66.176L450.213 68.5323ZM430.354 59.9471C436.117 60.4606 441.579 61.3246 446.654 62.4665C450.104 48.921 449.222 38.8858 444.213 35.9979C439.235 33.116 429.864 37.5265 420.022 47.1206C423.744 51.1685 427.2 55.446 430.354 59.9471ZM392.339 137.74C390.214 137.77 388.118 137.234 386.268 136.187C378.637 131.801 377.126 119.204 382.111 101.641L382.763 99.2783L385.15 99.8825C390.974 101.351 397.39 102.384 404.229 102.946L405.401 103.06L406.084 104.027C409.733 109.332 413.818 114.34 418.288 118.992L420.004 120.744L418.288 122.502C408.724 132.332 399.505 137.74 392.339 137.74ZM386.34 105.344C382.896 118.89 383.778 128.943 388.781 131.831C393.765 134.67 403.106 130.29 412.978 120.702C409.256 116.654 405.799 112.369 402.628 107.876C397.149 107.391 391.708 106.545 386.34 105.344Z" fill="white"/>
<path d="M416.5 108.516C412.349 108.516 408.09 108.341 403.813 107.984L402.628 107.882L401.946 106.903C399.534 103.434 397.264 99.8689 395.143 96.2152C393.037 92.5517 391.08 88.8049 389.276 84.9838L388.769 83.9144L389.276 82.8329C391.083 79.0146 393.034 75.2688 395.143 71.6075C397.239 68.0067 399.529 64.4058 401.946 60.9138L402.628 59.9471L403.813 59.8383C412.252 59.1315 420.736 59.1315 429.175 59.8383L430.348 59.9531L431.03 60.9198C435.862 67.8602 440.106 75.192 443.718 82.839L444.219 83.9204L443.718 84.9898C440.116 92.6419 435.872 99.9746 431.03 106.909L430.348 107.888L429.175 107.99C424.91 108.335 420.645 108.516 416.5 108.516ZM405.42 103.054C412.881 103.616 420.119 103.616 427.574 103.054C431.736 96.9596 435.436 90.5617 438.643 83.9144C435.448 77.261 431.747 70.8623 427.574 64.7744C420.2 64.2065 412.794 64.2065 405.42 64.7744C401.243 70.8601 397.543 77.2591 394.351 83.9144C397.565 90.558 401.264 96.9554 405.42 103.054Z" fill="white"/>
</g>
<defs>
<filter id="filter0_d_1_4" x="0" y="0" width="510" height="237" filterUnits="userSpaceOnUse" color-interpolation-filters="sRGB">
<feFlood flood-opacity="0" result="BackgroundImageFix"/>
<feColorMatrix in="SourceAlpha" type="matrix" values="0 0 0 0 0 0 0 0 0 0 0 0 0 0 0 0 0 0 127 0" result="hardAlpha"/>
<feOffset dy="4"/>
<feGaussianBlur stdDeviation="2"/>
<feComposite in2="hardAlpha" operator="out"/>
<feColorMatrix type="matrix" values="0 0 0 0 0 0 0 0 0 0 0 0 0 0 0 0 0 0 0.25 0"/>
<feBlend mode="normal" in2="BackgroundImageFix" result="effect1_dropShadow_1_4"/>
<feBlend mode="normal" in="SourceGraphic" in2="effect1_dropShadow_1_4" result="shape"/>
</filter>
</defs>
</svg>
