<svg width="510" height="237" viewBox="0 0 510 237" fill="none" xmlns="http://www.w3.org/2000/svg">
<g filter="url(#filter0_d_1_4)">
<rect x="4" width="502" height="229" fill="#3B84B9"/>
<path d="M73.92 163.84C67.76 163.84 62.24 162.84 57.36 160.84C52.48 158.84 48.56 155.88 45.6 151.96C42.72 148.04 41.2 143.32 41.04 137.8H62.88C63.2 140.92 64.28 143.32 66.12 145C67.96 146.6 70.36 147.4 73.32 147.4C76.36 147.4 78.76 146.72 80.52 145.36C82.28 143.92 83.16 141.96 83.16 139.48C83.16 137.4 82.44 135.68 81 134.32C79.64 132.96 77.92 131.84 75.84 130.96C73.84 130.08 70.96 129.08 67.2 127.96C61.76 126.28 57.32 124.6 53.88 122.92C50.44 121.24 47.48 118.76 45 115.48C42.52 112.2 41.28 107.92 41.28 102.64C41.28 94.8 44.12 88.68 49.8 84.28C55.48 79.8 62.88 77.56 72 77.56C81.28 77.56 88.76 79.8 94.44 84.28C100.12 88.68 103.16 94.84 103.56 102.76H81.36C81.2 100.04 80.2 97.92 78.36 96.4C76.52 94.8 74.16 94 71.28 94C68.8 94 66.8 94.68 65.28 96.04C63.76 97.32 63 99.2 63 101.68C63 104.4 64.28 106.52 66.84 108.04C69.4 109.56 73.4 111.2 78.84 112.96C84.28 114.8 88.68 116.56 92.04 118.24C95.48 119.92 98.44 122.36 100.92 125.56C103.4 128.76 104.64 132.88 104.64 137.92C104.64 142.72 103.4 147.08 100.92 151C98.52 154.92 95 158.04 90.36 160.36C85.72 162.68 80.24 163.84 73.92 163.84ZM113.788 120.76C113.788 112.44 115.588 105.04 119.188 98.56C122.788 92 127.788 86.92 134.188 83.32C140.668 79.64 147.988 77.8 156.148 77.8C166.148 77.8 174.708 80.44 181.828 85.72C188.948 91 193.708 98.2 196.108 107.32H173.548C171.868 103.8 169.468 101.12 166.348 99.28C163.308 97.44 159.828 96.52 155.908 96.52C149.588 96.52 144.468 98.72 140.548 103.12C136.628 107.52 134.668 113.4 134.668 120.76C134.668 128.12 136.628 134 140.548 138.4C144.468 142.8 149.588 145 155.908 145C159.828 145 163.308 144.08 166.348 142.24C169.468 140.4 171.868 137.72 173.548 134.2H196.108C193.708 143.32 188.948 150.52 181.828 155.8C174.708 161 166.148 163.6 156.148 163.6C147.988 163.6 140.668 161.8 134.188 158.2C127.788 154.52 122.788 149.44 119.188 142.96C115.588 136.48 113.788 129.08 113.788 120.76ZM251.634 163L234.114 131.2H229.194V163H208.674V78.76H243.114C249.754 78.76 255.394 79.92 260.034 82.24C264.754 84.56 268.274 87.76 270.594 91.84C272.914 95.84 274.074 100.32 274.074 105.28C274.074 110.88 272.474 115.88 269.274 120.28C266.154 124.68 261.514 127.8 255.354 129.64L274.794 163H251.634ZM229.194 116.68H241.914C245.674 116.68 248.474 115.76 250.314 113.92C252.234 112.08 253.194 109.48 253.194 106.12C253.194 102.92 252.234 100.4 250.314 98.56C248.474 96.72 245.674 95.8 241.914 95.8H229.194V116.68ZM307.116 78.76V129.16C307.116 134.2 308.356 138.08 310.836 140.8C313.316 143.52 316.956 144.88 321.756 144.88C326.556 144.88 330.236 143.52 332.796 140.8C335.356 138.08 336.636 134.2 336.636 129.16V78.76H357.156V129.04C357.156 136.56 355.556 142.92 352.356 148.12C349.156 153.32 344.836 157.24 339.396 159.88C334.036 162.52 328.036 163.84 321.396 163.84C314.756 163.84 308.796 162.56 303.516 160C298.316 157.36 294.196 153.44 291.156 148.24C288.116 142.96 286.596 136.56 286.596 129.04V78.76H307.116ZM466.965 78.76V163H446.445V112.48L427.605 163H411.045L392.085 112.36V163H371.565V78.76H395.805L419.445 137.08L442.845 78.76H466.965Z" fill="white"/>
</g>
<defs>
<filter id="filter0_d_1_4" x="0" y="0" width="510" height="237" filterUnits="userSpaceOnUse" color-interpolation-filters="sRGB">
<feFlood flood-opacity="0" result="BackgroundImageFix"/>
<feColorMatrix in="SourceAlpha" type="matrix" values="0 0 0 0 0 0 0 0 0 0 0 0 0 0 0 0 0 0 127 0" result="hardAlpha"/>
<feOffset dy="4"/>
<feGaussianBlur stdDeviation="2"/>
<feComposite in2="hardAlpha" operator="out"/>
<feColorMatrix type="matrix" values="0 0 0 0 0 0 0 0 0 0 0 0 0 0 0 0 0 0 0.25 0"/>
<feBlend mode="normal" in2="BackgroundImageFix" result="effect1_dropShadow_1_4"/>
<feBlend mode="normal" in="SourceGraphic" in2="effect1_dropShadow_1_4" result="shape"/>
</filter>
</defs>
</svg>
